<?xml version="1.0" encoding="UTF-8" standalone="no"?>
<!-- Generator: Adobe Illustrator 15.1.0, SVG Export Plug-In . SVG Version: 6.00 Build 0)  -->

<svg
   xmlns:dc="http://purl.org/dc/elements/1.1/"
   xmlns:cc="http://creativecommons.org/ns#"
   xmlns:rdf="http://www.w3.org/1999/02/22-rdf-syntax-ns#"
   xmlns:svg="http://www.w3.org/2000/svg"
   xmlns="http://www.w3.org/2000/svg"
   xmlns:sodipodi="http://sodipodi.sourceforge.net/DTD/sodipodi-0.dtd"
   xmlns:inkscape="http://www.inkscape.org/namespaces/inkscape"
   version="1.1"
   id="Layer_1"
   x="0px"
   y="0px"
   width="1400px"
   height="980px"
   viewBox="0 0 1400 980"
   enable-background="new 0 0 1400 980"
   xml:space="preserve"
   sodipodi:docname="Flowers.svg"
   inkscape:version="0.92.3 (2405546, 2018-03-11)"><metadata
   id="metadata193"><rdf:RDF><cc:Work
       rdf:about=""><dc:format>image/svg+xml</dc:format><dc:type
         rdf:resource="http://purl.org/dc/dcmitype/StillImage" /><dc:title></dc:title></cc:Work></rdf:RDF></metadata><defs
   id="defs191">
	
	
	
	
	
	
	
	
	
	

		
		
		
		
		
		
		
	</defs><sodipodi:namedview
   pagecolor="#ffffff"
   bordercolor="#666666"
   borderopacity="1"
   objecttolerance="10"
   gridtolerance="10"
   guidetolerance="10"
   inkscape:pageopacity="0"
   inkscape:pageshadow="2"
   inkscape:window-width="1920"
   inkscape:window-height="1017"
   id="namedview189"
   showgrid="false"
   inkscape:zoom="0.48163265"
   inkscape:cx="263.42917"
   inkscape:cy="123.73082"
   inkscape:window-x="-8"
   inkscape:window-y="-8"
   inkscape:window-maximized="1"
   inkscape:current-layer="Layer_1" />
<g
   id="g1117"><path
     inkscape:connector-curvature="0"
     id="path2"
     d="m 387.244,241.238 c 0,0 -10.872,1.05 -12.273,7.712 -1.401,6.664 -3.157,26.997 -6.662,42.426 -3.504,15.427 -17.53,41.02 1.752,46.28 19.286,5.26 15.206,17.816 25.245,15.079 7.714,-2.104 8.414,-17.179 17.533,-17.533 9.116,-0.351 1.05,-26.295 -7.364,-46.982 -8.413,-20.687 -0.35,-46.982 -18.231,-46.982 z"
     style="fill:#4fb900;fill-opacity:0.99607843;stroke:none;stroke-opacity:1;stroke-width:4;stroke-miterlimit:4;stroke-dasharray:none" /><path
     inkscape:connector-curvature="0"
     id="path4"
     d="m 402.67,241.238 c 0,0 25.245,-35.063 60.659,-15.076 35.411,19.985 49.085,36.813 62.057,35.411 12.972,-1.404 -7.013,11.22 -14.728,11.22 -7.712,0 -11.568,11.919 -21.038,8.765 -9.464,-3.157 -39.167,-30.083 -49.404,-36.807 C 421,232.127 398.59,245.973 402.67,241.238 Z"
     style="fill:#4fb900;fill-opacity:0.99607843;stroke:none;stroke-opacity:1;stroke-width:4;stroke-miterlimit:4;stroke-dasharray:none" /><path
     inkscape:connector-curvature="0"
     id="path6"
     d="m 397.761,238.432 c 0,0 -3.855,-4.909 -15.078,-2.455 0,0 -0.696,-36.464 -7.712,-45.932 -7.013,-9.464 -4.906,-20.687 2.106,-31.204 7.01,-10.52 4.354,-15.595 6.075,-17.179 5.331,-4.909 21.271,11.922 24.778,26.997 3.505,15.077 -5.747,36.466 -10.169,69.773 z"
     style="fill:#3747ff;fill-opacity:0.99607843;stroke:none;stroke-opacity:1;stroke-width:4;stroke-miterlimit:4;stroke-dasharray:none" /><path
     inkscape:connector-curvature="0"
     id="path8"
     d="m 374.269,237.031 c 0,0 -18.931,-15.079 -31.552,-12.624 -12.624,2.455 -35.918,25.546 -47.684,29.101 -11.748,3.552 -22.575,-2.221 -20.69,3.508 1.682,5.104 13.674,4.207 23.141,13.323 9.467,9.116 22.791,12.273 32.609,0 9.818,-12.273 18.468,-38.217 33.658,-31.906 15.194,6.313 10.518,-1.402 10.518,-1.402 z"
     style="fill:#4fb900;fill-opacity:0.99607843;stroke:none;stroke-opacity:1;stroke-width:4;stroke-miterlimit:4;stroke-dasharray:none" /><path
     inkscape:connector-curvature="0"
     id="path10"
     d="m 360.099,147.796 c 0,0 1.549,7.626 -3.974,13.674 -5.523,6.048 -8.939,11.178 -8.677,16.698 0,0 -3.682,-20.51 2.629,-30.239 6.314,-9.729 10.022,-0.133 10.022,-0.133 z"
     style="fill:#3747ff;fill-opacity:0.99607843;stroke:none;stroke-opacity:1;stroke-width:4;stroke-miterlimit:4;stroke-dasharray:none" /><path
     inkscape:connector-curvature="0"
     id="path12"
     d="m 360.099,163.574 c 0,0 -9.703,8.5 -9.892,17.884 -0.159,8.154 5.13,31.292 29.059,52.593 0,0 -11.641,-23.537 -12.361,-32.871 -1.525,-19.908 -6.806,-37.606 -6.806,-37.606 z"
     style="fill:#3747ff;fill-opacity:0.99607843;stroke:none;stroke-opacity:1;stroke-width:4;stroke-miterlimit:4;stroke-dasharray:none" /><path
     inkscape:connector-curvature="0"
     id="path14"
     d="m 413.716,140.792 c 0,0 10.34,-1.41 14.724,9.285 4.384,10.694 12.975,45.055 -24.018,83.974 0,0 20.162,-38.306 16.129,-55.883 -4.033,-17.574 -10.343,-24.059 -10.694,-28.793 -0.351,-4.732 1.422,-8.573 3.859,-8.583 z"
     style="fill:#3747ff;fill-opacity:0.99607843;stroke:none;stroke-opacity:1;stroke-width:4;stroke-miterlimit:4;stroke-dasharray:none" /></g><g
   id="g38"
   style="stroke:#000000;stroke-opacity:0.43388429;fill:#a40000;fill-opacity:0.99607843;stroke-width:3;stroke-miterlimit:4;stroke-dasharray:none">
		<path
   inkscape:connector-curvature="0"
   id="path18"
   d="m 602.386,795.108 c 0,0 -2.227,-40.978 21.902,-22.657 25.864,19.637 53.425,4.106 60.024,-4.461 6.603,-8.566 18.648,22.292 12.53,38.618 -6.122,16.326 -53.511,29.69 -53.511,29.69 0,0 -40.945,-19.287 -40.945,-41.19 z"
   style="stroke:#000000;stroke-opacity:0.43388429;fill:#a40000;fill-opacity:0.99607843;stroke-width:3;stroke-miterlimit:4;stroke-dasharray:none" />
		<path
   inkscape:connector-curvature="0"
   id="path20"
   d="m 630.274,836.128 c 0,0 -40.146,-28.186 -44.739,-43.273 -4.597,-15.081 -23.496,-19.323 -31.075,-26.197 0,0 -10.5,17.831 -4.387,34.912 6.113,17.087 39.427,36.653 80.201,34.558 z"
   style="stroke:#000000;stroke-opacity:0.43388429;fill:#a40000;fill-opacity:0.99607843;stroke-width:3;stroke-miterlimit:4;stroke-dasharray:none" />
		<path
   inkscape:connector-curvature="0"
   id="path22"
   d="m 595.288,789.898 c 0,0 -8.107,-12.355 -26.056,-19.152 -7.202,-2.731 -10.824,-22.386 -8.181,-28.806 0,0 13.09,-3.776 24.796,3.021 11.707,6.797 16.616,20.014 16.616,20.014 0,0 -7.352,16.239 -7.175,24.923 z"
   style="stroke:#000000;stroke-opacity:0.43388429;fill:#a40000;fill-opacity:0.99607843;stroke-width:3;stroke-miterlimit:4;stroke-dasharray:none" />
		<path
   inkscape:connector-curvature="0"
   id="path24"
   d="m 617.544,756.16 c 0,0 -10.951,-19.259 0,-30.587 10.951,-11.329 30.587,-23.035 30.587,-23.035 0,0 36.252,19.808 39.273,35.957 3.021,16.155 -3.776,21.441 -3.776,21.441 0,0 -31.986,-35.373 -66.084,-3.776 z"
   style="stroke:#000000;stroke-opacity:0.43388429;fill:#a40000;fill-opacity:0.99607843;stroke-width:3;stroke-miterlimit:4;stroke-dasharray:none" />
		<path
   inkscape:connector-curvature="0"
   id="path26"
   d="m 619.379,721.974 c 0,0 -6.773,-9.44 -29.254,-10.196 0,0 -17.571,11.707 -20.592,24.924 0,0 24.923,-1.817 41.666,21.749 -10e-4,-10e-4 -11.583,-31.314 8.18,-36.477 z"
   style="stroke:#000000;stroke-opacity:0.43388429;fill:#a40000;fill-opacity:0.99607843;stroke-width:3;stroke-miterlimit:4;stroke-dasharray:none" />
		<path
   inkscape:connector-curvature="0"
   id="path28"
   d="m 562.502,736.955 c 0,0 -18.899,-4.107 -23.053,2.224 0,0 5.287,17.123 1.888,29.856 -3.399,12.732 4.531,19.152 4.531,19.152 0,0 0.879,-26.274 11.453,-28.251 10e-4,10e-4 -6.658,-13.04 5.181,-22.981 z"
   style="stroke:#000000;stroke-opacity:0.43388429;fill:#a40000;fill-opacity:0.99607843;stroke-width:3;stroke-miterlimit:4;stroke-dasharray:none" />
		<path
   inkscape:connector-curvature="0"
   id="path30"
   d="m 669.426,836.299 c 0,0 40.025,-28.351 44.557,-43.456 4.531,-15.104 23.413,-19.424 30.966,-26.327 0,0 10.573,17.783 4.531,34.895 -6.042,17.112 -39.274,36.812 -80.054,34.888 z"
   style="stroke:#000000;stroke-opacity:0.43388429;fill:#a40000;fill-opacity:0.99607843;stroke-width:3;stroke-miterlimit:4;stroke-dasharray:none" />
		<path
   inkscape:connector-curvature="0"
   id="path32"
   d="m 704.135,790.028 c 0,0 8.107,-12.355 26.057,-19.152 7.204,-2.726 10.827,-22.386 8.184,-28.806 0,0 -13.093,-3.776 -24.8,3.021 -11.706,6.797 -16.615,20.014 -16.615,20.014 0,0 7.351,16.238 7.174,24.923 z"
   style="stroke:#000000;stroke-opacity:0.43388429;fill:#a40000;fill-opacity:0.99607843;stroke-width:3;stroke-miterlimit:4;stroke-dasharray:none" />
		<path
   inkscape:connector-curvature="0"
   id="path34"
   d="m 681.938,723.118 c 0,0 6.774,-9.44 29.254,-10.195 0,0 17.571,11.706 20.593,24.923 0,0 -28.363,0.867 -38.264,18.993 -10e-4,0 6.542,-26.746 -11.583,-33.721 z"
   style="stroke:#000000;stroke-opacity:0.43388429;fill:#a40000;fill-opacity:0.99607843;stroke-width:3;stroke-miterlimit:4;stroke-dasharray:none" />
		<path
   inkscape:connector-curvature="0"
   id="path36"
   d="m 738.063,734.754 c 0,0 18.898,-0.962 23.053,5.369 0,0 -5.287,17.123 -1.889,29.856 3.398,12.732 -4.531,19.152 -4.531,19.152 0,0 -1.522,-23.814 -9.818,-27.566 -0.001,0 5.026,-16.869 -6.815,-26.811 z"
   style="stroke:#000000;stroke-opacity:0.43388429;fill:#a40000;fill-opacity:0.99607843;stroke-width:3;stroke-miterlimit:4;stroke-dasharray:none" />
	</g><g
   id="g66"
   style="fill:#fcff37;fill-opacity:0.99607843;stroke:#000000;stroke-opacity:0.99607843;stroke-width:2;stroke-miterlimit:4;stroke-dasharray:none">
		<path
   inkscape:connector-curvature="0"
   id="path40"
   d="m 701.117,265.25 c -5.656,1.643 -11.777,2.581 -18.2,2.581 -6.372,0 -12.444,-0.923 -18.061,-2.543 -11.045,10.367 -28.516,28.956 -30.455,35.432 -2.717,9.066 12.458,15.123 26.767,9.783 14.312,-5.339 22.362,-7.425 32.086,-5.233 9.727,2.189 43.656,-3.437 42.488,-8.978 -0.866,-4.11 -23.14,-22.033 -34.625,-31.042 z"
   style="fill:#fcff37;fill-opacity:0.99607843;stroke:#000000;stroke-opacity:0.99607843;stroke-width:2;stroke-miterlimit:4;stroke-dasharray:none" />
		<path
   inkscape:connector-curvature="0"
   id="path42"
   d="m 744.11,242.654 c -6.443,0.121 -10.798,0.204 -13.76,0.26 -4.125,8.393 -12.025,15.388 -22.191,19.804 7.546,7.573 23.194,21.421 34.818,19.209 15.859,-3.021 37.963,-16.866 40.405,-22.658 3.398,-8.057 12.084,-12.334 12.084,-12.334 0,0 -31.342,-4.659 -51.356,-4.281 z"
   style="fill:#fcff37;fill-opacity:0.99607843;stroke:#000000;stroke-opacity:0.99607843;stroke-width:2;stroke-miterlimit:4;stroke-dasharray:none" />
		<path
   inkscape:connector-curvature="0"
   id="path44"
   d="m 631.956,309.366 c 0,0 6.296,7.806 17.12,8.057 10.824,0.251 20.643,-9.066 38.013,-8.057 17.37,1.009 43.557,-0.25 51.109,-8.558 0,0 -6.296,24.669 -46.073,28.195 -39.778,3.525 -56.393,-9.567 -60.169,-19.637 z"
   style="fill:#fcff37;fill-opacity:0.99607843;stroke:#000000;stroke-opacity:0.99607843;stroke-width:2;stroke-miterlimit:4;stroke-dasharray:none" />
		<path
   inkscape:connector-curvature="0"
   id="path46"
   d="m 740.464,285.293 c 0,0 26.174,-5.381 37.255,-15.199 11.081,-9.818 14.598,-19.637 17.748,-19.888 3.15,-0.25 10.951,3.776 10.951,10.574 0,6.798 -28.699,30.649 -65.954,24.513 z"
   style="fill:#fcff37;fill-opacity:0.99607843;stroke:#000000;stroke-opacity:0.99607843;stroke-width:2;stroke-miterlimit:4;stroke-dasharray:none" />
		<path
   inkscape:connector-curvature="0"
   id="path48"
   d="m 787.289,190.291 c 0,0 -40.719,27.971 -56.207,27.679 1.581,3.696 2.46,7.629 2.46,11.721 0,3.714 -0.737,7.295 -2.053,10.691 10.178,0.118 35.951,-0.331 51.269,-7.293 19.377,-8.812 13.341,-37.762 4.531,-42.798 z"
   style="fill:#fcff37;fill-opacity:0.99607843;stroke:#000000;stroke-opacity:0.99607843;stroke-width:2;stroke-miterlimit:4;stroke-dasharray:none" />
		<path
   inkscape:connector-curvature="0"
   id="path50"
   d="m 792.576,232.334 c 0,0 9.045,-21.297 5.782,-33.484 -2.892,-10.824 -8.556,-16.362 -7.553,-17.873 1.015,-1.51 14.102,0.251 18.386,11.831 4.278,11.579 2.514,30.717 -16.615,39.526 z"
   style="fill:#fcff37;fill-opacity:0.99607843;stroke:#000000;stroke-opacity:0.99607843;stroke-width:2;stroke-miterlimit:4;stroke-dasharray:none" />
		<path
   inkscape:connector-curvature="0"
   id="path52"
   d="m 635.46,242.872 c -2.823,-0.053 -6.594,-0.124 -11.647,-0.218 -20.014,-0.377 -51.357,4.281 -51.357,4.281 0,0 8.686,4.278 12.084,12.334 2.443,5.792 24.546,19.637 40.406,22.658 11.311,2.153 26.418,-10.892 34.181,-18.574 -10.883,-4.376 -19.351,-11.665 -23.667,-20.481 z"
   style="fill:#fcff37;fill-opacity:0.99607843;stroke:#000000;stroke-opacity:0.99607843;stroke-width:2;stroke-miterlimit:4;stroke-dasharray:none" />
		<path
   inkscape:connector-curvature="0"
   id="path54"
   d="m 627.462,285.293 c 0,0 -26.18,-5.381 -37.258,-15.199 -11.078,-9.818 -14.601,-19.637 -17.749,-19.888 -3.147,-0.25 -10.951,3.776 -10.951,10.574 0,6.798 28.701,30.649 65.958,24.513 z"
   style="fill:#fcff37;fill-opacity:0.99607843;stroke:#000000;stroke-opacity:0.99607843;stroke-width:2;stroke-miterlimit:4;stroke-dasharray:none" />
		<path
   inkscape:connector-curvature="0"
   id="path56"
   d="m 632.289,229.691 c 0,-4.148 0.906,-8.128 2.531,-11.866 -16.71,-1.812 -54.183,-27.534 -54.183,-27.534 -8.812,5.036 -14.851,33.986 4.531,42.798 14.341,6.52 37.883,7.325 49.18,7.308 -1.319,-3.402 -2.059,-6.986 -2.059,-10.706 z"
   style="fill:#fcff37;fill-opacity:0.99607843;stroke:#000000;stroke-opacity:0.99607843;stroke-width:2;stroke-miterlimit:4;stroke-dasharray:none" />
		<path
   inkscape:connector-curvature="0"
   id="path58"
   d="m 575.351,232.334 c 0,0 -9.048,-21.297 -5.789,-33.484 2.894,-10.824 8.562,-16.362 7.553,-17.873 -1.009,-1.51 -14.099,0.251 -18.38,11.831 -4.281,11.579 -2.52,30.717 16.616,39.526 z"
   style="fill:#fcff37;fill-opacity:0.99607843;stroke:#000000;stroke-opacity:0.99607843;stroke-width:2;stroke-miterlimit:4;stroke-dasharray:none" />
		<path
   inkscape:connector-curvature="0"
   id="path60"
   d="m 648.031,183.32 c -7.054,-10.069 -10.125,-26.434 -15.105,-28.449 -4.983,-2.015 -27.192,-4.278 -28.844,-3.776 -1.652,0.501 -14.04,15.609 -11.564,29.204 1.797,9.862 29.546,25.321 44.684,33.089 4.411,-7.007 11.547,-12.831 20.409,-16.698 -3.033,-4.178 -6.803,-9.405 -9.58,-13.37 z"
   style="fill:#fcff37;fill-opacity:0.99607843;stroke:#000000;stroke-opacity:0.99607843;stroke-width:2;stroke-miterlimit:4;stroke-dasharray:none" />
		<path
   inkscape:connector-curvature="0"
   id="path62"
   d="m 682.917,191.551 c 8.862,0 17.182,1.726 24.428,4.738 4.738,-10.582 12.42,-29.183 12.526,-38.851 0.236,-22.728 -34.794,-26.938 -34.794,-26.938 0,0 -35.036,4.21 -34.794,26.938 0.101,9.272 7.157,26.726 11.919,37.477 6.327,-2.143 13.325,-3.364 20.715,-3.364 z"
   style="fill:#fcff37;fill-opacity:0.99607843;stroke:#000000;stroke-opacity:0.99607843;stroke-width:2;stroke-miterlimit:4;stroke-dasharray:none" />
		<path
   inkscape:connector-curvature="0"
   id="path64"
   d="m 762.566,151.095 c -1.511,-0.501 -21.813,1.761 -26.369,3.776 -4.555,2.015 -7.363,18.379 -13.813,28.449 -2.968,4.632 -7.163,10.972 -10.078,15.355 7.151,3.853 12.898,9.066 16.604,15.149 14.539,-7.615 42.56,-23.48 44.229,-33.526 2.266,-13.594 -9.062,-28.702 -10.573,-29.203 z"
   style="fill:#fcff37;fill-opacity:0.99607843;stroke:#000000;stroke-opacity:0.99607843;stroke-width:2;stroke-miterlimit:4;stroke-dasharray:none" />
	</g><g
   id="g80"
   style="fill:#e3e2e3;fill-opacity:0.99607843;stroke-width:4;stroke-miterlimit:4;stroke-dasharray:none;stroke:none;stroke-opacity:1">
		<path
   inkscape:connector-curvature="0"
   id="path68"
   d="m 808.613,557.123 c 0,0 38.506,-27.921 43.025,-44.253 4.514,-16.332 2.053,-34.629 -42.684,-28.867 0,0 -12.255,-5.293 -21.194,-2.493 -8.944,2.797 -27.442,12.278 -22.321,26.528 11.277,31.378 43.174,49.085 43.174,49.085 z"
   style="fill:#e3e2e3;fill-opacity:0.99607843;stroke-width:4;stroke-miterlimit:4;stroke-dasharray:none;stroke:none;stroke-opacity:1" />
		<path
   inkscape:connector-curvature="0"
   id="path70"
   d="m 846.446,456.076 c -8.603,1.274 -18.704,23.54 -18.704,23.54 5.487,-0.339 14.763,3.201 14.763,3.201 0,0 9.724,1.074 17.4,15.845 13.724,26.404 51.793,-10.491 63.776,-8.724 0,0 -13.677,-34.517 -43.538,-35.88 -20.079,-0.917 -33.697,2.018 -33.697,2.018 z"
   style="fill:#e3e2e3;fill-opacity:0.99607843;stroke-width:4;stroke-miterlimit:4;stroke-dasharray:none;stroke:none;stroke-opacity:1" />
		<path
   inkscape:connector-curvature="0"
   id="path72"
   d="m 804.606,445.907 c -2.018,5.665 4.696,29.659 4.696,29.659 l 15.453,0.944 c 0,0 0,0 3.912,-7.257 3.912,-7.261 12.456,-15.32 12.456,-15.32 0,0 12.272,-3.08 15.577,-4.048 3.304,-0.971 6.065,-12.639 0.437,-21.345 -5.623,-8.706 -15.424,-12.485 -15.424,-12.485 0,0 -7.989,9.939 -16.745,9.316 -8.755,-0.626 -19.146,-2.585 -20.362,20.536 z"
   style="fill:#e3e2e3;fill-opacity:0.99607843;stroke-width:4;stroke-miterlimit:4;stroke-dasharray:none;stroke:none;stroke-opacity:1" />
		<path
   inkscape:connector-curvature="0"
   id="path74"
   d="m 795.62,625.939 c 19.743,-13.719 47.274,-92.088 47.274,-92.088 -16.132,18.882 -34.122,28.924 -34.122,28.924 -25.797,-9.535 -42.666,-41.928 -42.666,-41.928 0,0 18.846,49.12 18.444,71.271 -0.006,0.136 0.461,23.619 0.496,23.749 -4.331,1.393 -14.226,-0.378 -15.271,4.39 -1.569,7.14 2.944,14.202 10.078,15.766 7.141,1.57 9.766,-5.913 15.767,-10.084 z"
   style="fill:#50b900;fill-opacity:0.99607843;stroke-width:4;stroke-miterlimit:4;stroke-dasharray:none;stroke:none;stroke-opacity:0.99607843" />
		<path
   inkscape:connector-curvature="0"
   id="path76"
   d="m 795.408,475.465 9.033,1.985 1.357,-2.655 c -2.744,-6.853 -5.275,-31.41 -5.275,-31.41 0,0 2.82,-18.708 -5.334,-18.551 -8.154,0.159 -23.861,0.088 -30.699,-2.21 -6.845,-2.301 -23.566,6.93 -23.566,6.93 0,0 33.432,9.057 39.81,20.852 2.33,11.919 14.674,25.059 14.674,25.059 z"
   style="fill:#e3e2e3;fill-opacity:0.99607843;stroke-width:4;stroke-miterlimit:4;stroke-dasharray:none;stroke:none;stroke-opacity:1" />
		<path
   inkscape:connector-curvature="0"
   id="path78"
   d="m 792.245,475.766 c -3.776,-3.906 -13.217,-20.5 -13.217,-20.5 0,0 -0.059,0.059 -0.059,0.068 -2.432,-5.016 -12.97,-11.662 -29.302,-13.376 -45.344,-4.768 -62.821,32.538 -62.821,32.538 22.74,-4.962 40.601,7.621 52.566,14.149 11.966,6.525 45.834,-10.934 45.834,-10.934 2.963,-1.456 6.999,-1.945 6.999,-1.945 z"
   style="fill:#e3e2e3;fill-opacity:0.99607843;stroke-width:4;stroke-miterlimit:4;stroke-dasharray:none;stroke:none;stroke-opacity:1" />
	</g><g
   id="g98"
   style="stroke:none;fill:#ff5d5d;fill-opacity:0.99607843">
		<path
   inkscape:connector-curvature="0"
   id="path82"
   d="m 499.43,528.854 c 0,0 4.529,-13.087 15.606,-15.105 11.078,-2.012 19.135,4.03 38.771,3.529 19.636,-0.508 19.132,-2.337 34.237,-3.942 15.105,-1.599 26.183,-3.434 28.7,0 2.516,3.435 -11.078,9.477 -13.595,15.519 -2.516,6.042 -17.117,9.063 -38.768,3.021 -21.651,-6.042 -52.362,-9.063 -64.951,-3.022 z"
   style="stroke:none;fill:#ff5d5d;fill-opacity:0.99607843" />
		<path
   inkscape:connector-curvature="0"
   id="path84"
   d="m 495.527,518.535 c 0,0 -9.063,3.451 -20.014,4.743 -10.951,1.298 -19.259,-3.233 -30.21,-4.743 -10.951,-1.511 -10.951,-11.329 -18.126,-15.86 -7.175,-4.532 -27.566,-10.954 -23.035,-13.598 4.532,-2.644 22.658,-13.217 39.273,-3.021 16.616,10.199 27.944,13.58 42.294,16.978 14.35,3.398 23.637,11.737 9.818,15.501 z"
   style="stroke:none;fill:#ff5d5d;fill-opacity:0.99607843" />
		<path
   inkscape:connector-curvature="0"
   id="path86"
   d="m 500.607,503.034 c 0,-1.492 -32.647,-10.753 -50.772,-20.474 -18.126,-9.721 -36.63,-4.812 -36.63,-11.609 0,-6.797 16.238,-10.951 19.259,-19.259 3.021,-8.308 4.532,-10.196 15.483,-12.839 10.951,-2.644 4.531,-8.686 13.217,-7.175 8.685,1.51 37.379,46.825 41.155,57.776 3.776,10.954 -1.712,13.58 -1.712,13.58 z"
   style="stroke:none;fill:#ff5d5d;fill-opacity:0.99607843" />
		<path
   inkscape:connector-curvature="0"
   id="path88"
   d="m 507.233,508.422 c 0,0 12.503,-3.311 19.3,-1.423 6.797,1.889 12.798,1.423 12.798,1.423 0,0 -3.723,-14.141 -14.674,-14.141 -10.951,0 -19.008,8.328 -17.424,14.141 z"
   style="stroke:none;fill:#cbce8e;fill-opacity:0.99607843" />
		<path
   inkscape:connector-curvature="0"
   id="path90"
   d="m 509.122,490.965 c 0,0 -18.126,-52.49 -33.986,-61.553 -15.86,-9.063 8.685,-4.154 16.993,-1.888 8.308,2.266 22.08,-8.638 31.054,-3.375 8.975,5.263 5.576,9.039 16.149,9.417 10.574,0.377 27.944,0 34.364,5.664 6.42,5.665 3.398,10.574 -10.196,19.259 -13.594,8.686 -34.257,27.986 -33.986,32.476 -10e-4,0 -13.595,-2.266 -20.392,0 z"
   style="stroke:none;fill:#ff5d5d;fill-opacity:0.99607843" />
		<path
   inkscape:connector-curvature="0"
   id="path92"
   d="m 536.688,490.965 c 0,0 30.587,-32.476 43.427,-37.385 12.839,-4.909 22.657,10.951 33.23,16.993 10.574,6.042 25.301,17.961 21.525,23.708 -3.776,5.75 -38.518,8.016 -53.623,11.036 -15.105,3.021 -33.609,-0.507 -37.385,-2.708 -3.775,-2.201 -1.465,-8.301 -7.174,-11.644 z"
   style="stroke:none;fill:#ff5d5d;fill-opacity:0.99607843" />
		<path
   inkscape:connector-curvature="0"
   id="path94"
   d="m 486.464,525.332 c 0,0 4.531,9.859 8.308,9.836 3.776,-0.018 18.775,-7.192 28.646,-6.06 9.871,1.133 25.354,3.439 22.333,6.06 -3.021,2.625 -17.571,21.129 -22.569,36.234 -4.998,15.104 -11.04,25.301 -11.04,25.301 0,0 -5.664,-9.441 -8.497,-7.175 -2.832,2.266 -5.476,10.195 -6.986,7.175 -1.511,-3.021 -2.826,-15.914 -7.175,-32.099 -6.796,-25.3 -3.02,-39.272 -3.02,-39.272 z"
   style="stroke:none;fill:#ff5d5d;fill-opacity:0.99607843" />
		<path
   inkscape:connector-curvature="0"
   id="path96"
   d="m 498.548,600.856 c 0,0 4.154,-10.703 7.552,-7.175 3.399,3.522 5.792,6.921 7.302,5.664 1.511,-1.262 2.768,-9.693 6.921,-12.213 4.154,-2.514 7.425,2.266 7.175,3.398 -0.251,1.133 -3.649,-0.879 -5.16,2.142 -1.51,3.021 -7.425,16.615 -7.93,23.413 -0.504,6.797 -6.924,9.316 -7.93,9.694 -1.006,0.377 -10.069,0.755 -11.707,-6.296 -1.637,-7.045 -4.906,-19.761 -7.426,-23.159 -2.519,-3.398 -1.009,-10.951 0.628,-12.839 1.638,-1.889 1.764,-1.263 2.393,2.643 0.63,3.901 3.778,18.753 8.182,14.728 z"
   style="stroke:none;fill:#4fb900;fill-opacity:0.99607843" />
	</g><g
   id="g116"
   style="fill:#ffffff;fill-opacity:0.99607843;stroke:#000000;stroke-opacity:0.99607843;stroke-width:2;stroke-miterlimit:4;stroke-dasharray:none">
		<g
   id="g112"
   style="fill:#ffffff;fill-opacity:0.99607843;stroke:#000000;stroke-opacity:0.99607843;stroke-width:2;stroke-miterlimit:4;stroke-dasharray:none">
			<path
   inkscape:connector-curvature="0"
   id="path100"
   d="m 1120.849,455.333 c -9.305,-10.636 -23.607,-10.969 -33.219,-26.254 -9.606,15.285 -23.908,15.618 -33.214,26.254 -9.895,11.308 7.901,26.147 15.271,45.583 6.455,17.028 15.642,52.909 17.943,62.898 2.301,-9.989 11.494,-45.87 17.949,-62.898 7.369,-19.436 25.165,-34.275 15.27,-45.583 z"
   style="fill:#f8f8f8;fill-opacity:0.99607843;stroke:#000000;stroke-opacity:0.99607843;stroke-width:2;stroke-miterlimit:4;stroke-dasharray:none" />
			<path
   inkscape:connector-curvature="0"
   id="path102"
   d="m 1196.474,527.09 c 4.455,-13.411 -2.495,-25.914 5.818,-41.939 -18.05,-0.543 -22.994,-8.671 -36.884,-11.308 -14.763,-2.806 -18.545,20.055 -31.572,36.249 -11.412,14.19 -37.604,30.694 -39.893,56.626 12.226,-19.477 36.813,-30.34 54.768,-33.396 20.485,-3.488 43.025,8.03 47.763,-6.232 z"
   style="fill:#f8f8f8;fill-opacity:0.99607843;stroke:#000000;stroke-opacity:0.99607843;stroke-width:2;stroke-miterlimit:4;stroke-dasharray:none" />
			<path
   inkscape:connector-curvature="0"
   id="path104"
   d="m 1191.547,621.862 c 13.158,-5.163 18.303,-18.51 35.945,-22.374 -11.14,-14.215 -8.06,-23.219 -14.916,-35.574 -7.299,-13.14 -27.283,-1.416 -48.064,-1.062 -18.209,0.318 -47.651,-9.246 -69.034,5.594 22.787,-3.074 46.866,8.868 60.703,20.704 15.8,13.512 21.371,38.2 35.366,32.712 z"
   style="fill:#f8f8f8;fill-opacity:0.99607843;stroke:#000000;stroke-opacity:0.99607843;stroke-width:2;stroke-miterlimit:4;stroke-dasharray:none" />
			<path
   inkscape:connector-curvature="0"
   id="path106"
   d="m 978.791,527.09 c -4.46,-13.411 2.502,-25.914 -5.817,-41.939 18.05,-0.543 23,-8.671 36.884,-11.308 14.762,-2.806 18.545,20.055 31.572,36.249 11.411,14.19 37.609,30.694 39.893,56.626 -12.226,-19.477 -36.813,-30.34 -54.762,-33.396 -20.492,-3.488 -43.032,8.03 -47.77,-6.232 z"
   style="fill:#f8f8f8;fill-opacity:0.99607843;stroke:#000000;stroke-opacity:0.99607843;stroke-width:2;stroke-miterlimit:4;stroke-dasharray:none" />
			<path
   inkscape:connector-curvature="0"
   id="path108"
   d="m 983.725,621.862 c -13.158,-5.163 -18.315,-18.51 -35.945,-22.374 11.128,-14.215 8.054,-23.219 14.916,-35.574 7.293,-13.14 27.277,-1.416 48.059,-1.062 18.209,0.318 47.651,-9.246 69.04,5.594 -22.787,-3.074 -46.872,8.868 -60.715,20.704 -15.79,13.512 -21.372,38.2 -35.355,32.712 z"
   style="fill:#f8f8f8;fill-opacity:0.99607843;stroke:#000000;stroke-opacity:0.99607843;stroke-width:2;stroke-miterlimit:4;stroke-dasharray:none" />
			<path
   inkscape:connector-curvature="0"
   id="path110"
   d="m 1103.714,567.88 c 0,8.88 -7.198,16.072 -16.084,16.072 -8.874,0 -16.073,-7.192 -16.073,-16.072 0,-8.881 7.199,-16.079 16.073,-16.079 8.886,0 16.084,7.198 16.084,16.079 z"
   style="fill:#d7d500;fill-opacity:0.99607843;stroke:#000000;stroke-opacity:0.99607843;stroke-width:2;stroke-miterlimit:4;stroke-dasharray:none" />
		</g>
		<path
   inkscape:connector-curvature="0"
   id="path114"
   d="m 1105.832,572.646 c 0,0 -3.534,16.61 -18.202,15.194 -14.663,1.416 -18.197,-15.194 -18.197,-15.194 0,0 -4.236,9.011 0,16.787 4.243,7.771 5.476,9.541 4.597,14.84 -0.885,5.298 6.892,12.189 13.601,12.544 6.715,-0.354 14.491,-7.246 13.606,-12.544 -0.886,-5.299 0.354,-7.069 4.596,-14.84 4.242,-7.776 -10e-4,-16.787 -10e-4,-16.787 z"
   style="fill:#51b900;fill-opacity:0.99607843;stroke:#000000;stroke-opacity:0.99607843;stroke-width:2;stroke-miterlimit:4;stroke-dasharray:none" />
	</g><g
   id="g134"
   style="fill:#d59900;fill-opacity:0.99607843;stroke:none">
		<g
   id="g130"
   style="fill:#d59900;fill-opacity:0.99607843;stroke:none">
			<path
   inkscape:connector-curvature="0"
   id="path118"
   d="m 224.24,581.657 c 0,0 -9.237,-3.328 -11.084,-33.261 -1.847,-29.927 -2.587,-91.27 -13.674,-97.92 -11.087,-6.652 -26.974,6.65 -26.974,6.65 0,0 12.562,-1.109 18.105,4.803 0,0 -10.347,0.741 -14.781,9.978 0,0 16.082,-6.393 20.153,2.313 7.559,16.164 -0.578,61.402 -0.209,82.467 0.369,21.065 28.464,24.97 28.464,24.97 z"
   style="fill:#d59900;fill-opacity:0.99607843;stroke:none" />
			<path
   inkscape:connector-curvature="0"
   id="path120"
   d="m 203.733,441.608 c 12.748,15.518 11.639,114.735 17.737,128.596 4.484,10.19 18.79,15.872 26.05,18.173 7.264,-2.301 21.566,-7.982 26.05,-18.173 6.098,-13.86 4.989,-113.078 17.74,-128.596 12.748,-15.521 24.94,-7.207 24.94,-7.207 0,0 -12.193,-16.073 -32.425,-9.423 -16.654,5.473 -29.726,15.114 -36.305,37.514 -6.579,-22.4 -19.651,-32.042 -36.305,-37.514 -20.232,-6.65 -32.426,9.423 -32.426,9.423 0,0 12.193,-8.314 24.944,7.207 z"
   style="fill:#d59900;fill-opacity:0.99607843;stroke:none" />
			<path
   inkscape:connector-curvature="0"
   id="path122"
   d="m 270.8,581.657 c 0,0 9.24,-3.328 11.087,-33.261 1.847,-29.927 2.587,-91.27 13.671,-97.92 11.087,-6.652 26.974,6.65 26.974,6.65 0,0 -12.562,-1.109 -18.105,4.803 0,0 10.347,0.741 14.781,9.978 0,0 -16.082,-6.393 -20.15,2.313 -7.562,16.164 0.575,61.402 0.207,82.467 -0.368,21.065 -28.465,24.97 -28.465,24.97 z"
   style="fill:#d59900;fill-opacity:0.99607843;stroke:none" />
			<path
   inkscape:connector-curvature="0"
   id="path124"
   d="m 247.52,451.583 0.812,-25.218 c 0,0 2.525,-5.814 -0.812,-5.821 -5.266,-0.009 -1.779,6.237 -1.779,6.237 z"
   style="fill:#f3ff4a;fill-opacity:0.99607843;stroke:none" />
			<path
   inkscape:connector-curvature="0"
   id="path126"
   d="m 252.093,447.288 4.817,-16.459 c 0,0 2.528,-5.812 -0.808,-5.821 -5.266,-0.006 -1.782,6.237 -1.782,6.237 z"
   style="fill:#f3ff4a;fill-opacity:0.99607843;stroke:none" />
			<path
   inkscape:connector-curvature="0"
   id="path128"
   d="m 243.693,447.288 -4.818,-16.459 c 0,0 -2.528,-5.812 0.809,-5.821 5.266,-0.006 1.779,6.237 1.779,6.237 z"
   style="fill:#f3ff4a;fill-opacity:0.99607843;stroke:none" />
		</g>
		<path
   inkscape:connector-curvature="0"
   id="path132"
   d="m 273.756,585.723 c 0,0 -9.606,-1.848 -14.966,1.292 -5.357,3.139 -11.27,4.803 -11.27,4.803 0,0 -10.349,-2.956 -12.75,-5.729 -2.401,-2.768 -13.857,1.109 -13.857,1.109 0,0 9.24,1.664 10.346,4.62 1.109,2.956 7.579,9.423 16.261,10.35 8.683,0.92 11.825,-7.766 14.595,-10.35 2.773,-2.591 11.641,-6.095 11.641,-6.095 z"
   style="fill:#4fb900;fill-opacity:0.99607843;stroke:none" />
	</g><g
   id="g148"
   style="fill:#cb00cf;fill-opacity:0.99607843;stroke:none;stroke-opacity:1;stroke-width:4;stroke-miterlimit:4;stroke-dasharray:none">
		<path
   inkscape:connector-curvature="0"
   id="path136"
   d="m 968.105,245.554 c -1.28,0 -52.425,-46.038 -82.269,-40.922 -29.838,5.116 -43.91,18.33 -28.988,40.922 14.922,22.596 2.13,66.503 24.298,59.683 22.167,-6.821 50.726,-51.693 78.009,-50.145 0,0 -27.283,-11.665 -45.186,-2.29 -17.901,9.379 -10.656,-21.315 17.053,-14.919 27.708,6.393 37.083,7.671 37.083,7.671 z"
   style="fill:#cb00cf;fill-opacity:0.99607843;stroke:none;stroke-opacity:1;stroke-width:4;stroke-miterlimit:4;stroke-dasharray:none" />
		<path
   inkscape:connector-curvature="0"
   id="path138"
   d="m 972.797,246.834 c 0,0 -35.804,-39.645 -52.431,-48.595 -16.628,-8.951 -7.677,-35.804 31.543,-32.824 39.22,2.982 45.186,-26.853 57.547,-10.229 12.361,16.625 -27.702,91.647 -27.702,91.647 0,0 10.225,-44.713 -1.712,-48.359 -11.931,-3.646 -13.642,12.979 -7.245,48.36 z"
   style="fill:#cb00cf;fill-opacity:0.99607843;stroke:none;stroke-opacity:1;stroke-width:4;stroke-miterlimit:4;stroke-dasharray:none" />
		<path
   inkscape:connector-curvature="0"
   id="path140"
   d="m 973.646,261.016 c 0,0 -21.313,-3.101 -36.229,12.674 -14.922,15.771 -43.049,62.662 -17.052,73.318 25.997,10.659 23.867,-6.39 47.739,8.101 23.879,14.492 29.845,-19.462 22.593,-49.162 -7.245,-29.7 -11.931,-38.653 -11.931,-38.653 0,0 -12.827,14.922 -16.65,32.827 -3.812,17.902 -19.165,12.786 -18.309,2.558 0.857,-10.232 13.643,-35.695 29.839,-41.663 z"
   style="fill:#cb00cf;fill-opacity:0.99607843;stroke:none;stroke-opacity:1;stroke-width:4;stroke-miterlimit:4;stroke-dasharray:none" />
		<path
   inkscape:connector-curvature="0"
   id="path142"
   d="m 991.873,267.294 c 0,0 24.94,-6.075 49.875,5.437 24.936,11.509 31.013,35.488 17.902,44.757 -13.111,9.272 -4.154,34.529 -18.863,39.004 -14.704,4.476 -26.912,-5.116 -28.965,-27.814 -2.042,-22.699 -19.949,-55.31 -19.949,-55.31 0,0 11.511,5.437 24.297,18.863 12.786,13.43 26.216,-0.64 14.71,-10.868 -11.512,-10.231 -39.007,-14.069 -39.007,-14.069 z"
   style="fill:#cb00cf;fill-opacity:0.99607843;stroke:none;stroke-opacity:1;stroke-width:4;stroke-miterlimit:4;stroke-dasharray:none" />
		<path
   inkscape:connector-curvature="0"
   id="path144"
   d="m 989.955,257.384 c 0,0 51.156,-54.03 71.294,-45.719 20.138,8.313 17.265,27.814 27.814,36.768 10.55,8.951 6.071,23.339 -4.159,24.935 -10.231,1.599 -50.826,-21.1 -82.481,-14.066 0,0 19.146,-10.869 40.104,-9.591 20.958,1.281 10.408,-16.624 -5.576,-12.148 -15.983,4.474 -46.996,19.821 -46.996,19.821 z"
   style="fill:#cb00cf;fill-opacity:0.99607843;stroke:none;stroke-opacity:1;stroke-width:4;stroke-miterlimit:4;stroke-dasharray:none" />
		<path
   inkscape:connector-curvature="0"
   id="path146"
   d="m 981.642,255.092 c 0,0 5.434,-9.538 18.226,-24.882 12.786,-15.347 27.496,-49.554 26.854,-56.587 -0.638,-7.033 -0.62,-17.905 2.407,-21.103 3.026,-3.195 9.423,2.879 9.423,9.913 0,7.034 -2.349,14.813 -7.777,25.363 -5.439,10.55 -14.148,26.233 -28.988,44.548 -5.844,7.2 -20.145,22.748 -20.145,22.748 z"
   style="fill:#cb00cf;fill-opacity:0.99607843;stroke:none;stroke-opacity:1;stroke-width:4;stroke-miterlimit:4;stroke-dasharray:none" />
	</g><g
   id="g182"
   style="fill:#ff78e6;fill-opacity:0.99607843;stroke:none">
		<g
   id="g154"
   style="fill:#ff78e6;fill-opacity:0.99607843;stroke:none">
			<path
   inkscape:connector-curvature="0"
   id="path150"
   d="m 371.265,662.834 c 0,0 -22.25,12.433 -26.398,30.398 -5.998,25.991 11.199,51.192 11.199,51.192 0,0 20.796,-19.602 20.796,-39.798 0,-9.334 2.788,-9.44 -5.597,-41.792 z"
   style="fill:#a00083;fill-opacity:0.99607831;stroke:#a00083;stroke-opacity:0.99607843;stroke-width:6;stroke-miterlimit:4;stroke-dasharray:none" />
			<path
   inkscape:connector-curvature="0"
   id="path152"
   d="m 339.669,713.631 c 0,0 -6.37,-37.969 37.638,-58.792 15.822,-7.487 -6.042,-16.001 -25.242,-4.401 -18.65,11.269 -26.793,40.393 -12.396,63.193 z"
   style="fill:#ffa6ef;fill-opacity:0.99607843;stroke:#ffa6ef;stroke-width:4;stroke-miterlimit:4;stroke-dasharray:none;stroke-opacity:0.99607843" />
		</g>
		<g
   id="g160"
   style="fill:#ff78e6;fill-opacity:0.99607843;stroke:none">
			<path
   inkscape:connector-curvature="0"
   id="path156"
   d="m 442.557,725.962 c 0,0 -20.94,-14.526 -38.901,-10.366 -25.988,6.03 -41.072,32.546 -41.072,32.546 0,0 26.74,10.078 44.884,1.204 8.389,-4.101 9.708,-1.641 35.089,-23.384 z"
   style="fill:#a00083;fill-opacity:0.99607831;stroke:#a00083;stroke-opacity:0.99607843;stroke-width:6;stroke-miterlimit:4;stroke-dasharray:none" />
			<path
   inkscape:connector-curvature="0"
   id="path158"
   d="m 381.048,721.885 c 0,0 31.311,-22.397 69.347,7.995 13.674,10.928 11.718,-12.456 -7.134,-24.61 -18.314,-11.807 -48.054,-6.332 -62.213,16.615 z"
   style="fill:#ffa6ef;fill-opacity:0.99607843;stroke:#ffa6ef;stroke-width:4;stroke-miterlimit:4;stroke-dasharray:none;stroke-opacity:0.99607843" />
		</g>
		<g
   id="g166"
   style="fill:#ff78e6;fill-opacity:0.99607843;stroke:none">
			<path
   inkscape:connector-curvature="0"
   id="path162"
   d="m 402.006,824.528 c 0,0 8.626,-23.985 -0.042,-40.265 -12.538,-23.548 -42.052,-31.266 -42.052,-31.266 0,0 -2.823,28.439 10.435,43.674 6.132,7.047 4.099,8.958 31.659,27.857 z"
   style="fill:#a00083;fill-opacity:0.99607831;stroke:#a00083;stroke-opacity:0.99607843;stroke-width:6;stroke-miterlimit:4;stroke-dasharray:none" />
			<path
   inkscape:connector-curvature="0"
   id="path164"
   d="m 390.498,765.465 c 0,0 29.729,24.464 10.199,69.059 -7.019,16.037 15.063,8.102 21.932,-13.252 6.67,-20.741 -6.305,-48.059 -32.131,-55.807 z"
   style="fill:#ffa6ef;fill-opacity:0.99607843;stroke:#ffa6ef;stroke-width:4;stroke-miterlimit:4;stroke-dasharray:none;stroke-opacity:0.99607843" />
		</g>
		<g
   id="g172"
   style="fill:#ff78e6;fill-opacity:0.99607843;stroke:none">
			<path
   inkscape:connector-curvature="0"
   id="path168"
   d="m 299.7,814.462 c 0,0 25.487,0.39 38.075,-13.075 18.22,-19.495 15.96,-49.917 15.96,-49.917 0,0 -27.817,6.543 -37.937,24.021 -4.678,8.082 -7.148,6.779 -16.098,38.971 z"
   style="fill:#a00083;fill-opacity:0.99607831;stroke:#a00083;stroke-opacity:0.99607843;stroke-width:6;stroke-miterlimit:4;stroke-dasharray:none" />
			<path
   inkscape:connector-curvature="0"
   id="path170"
   d="m 350.493,784.341 c 0,0 -13.506,36.046 -62.027,32.016 -17.445,-1.446 -2.788,16.875 19.639,16.456 21.784,-0.408 43.43,-21.531 42.388,-48.472 z"
   style="fill:#ffa6ef;fill-opacity:0.99607843;stroke:#ffa6ef;stroke-width:4;stroke-miterlimit:4;stroke-dasharray:none;stroke-opacity:0.99607843" />
		</g>
		<g
   id="g178"
   style="fill:#ff78e6;fill-opacity:0.99607843;stroke:none">
			<path
   inkscape:connector-curvature="0"
   id="path174"
   d="m 277.479,709.99 c 0,0 6.21,24.723 22.478,33.401 23.537,12.563 52.342,2.52 52.342,2.52 0,0 -13.509,-25.183 -33.01,-30.445 -9.016,-2.432 -8.393,-5.152 -41.81,-5.476 z"
   style="fill:#a00083;fill-opacity:0.99607831;stroke:#a00083;stroke-opacity:0.99607843;stroke-width:6;stroke-miterlimit:4;stroke-dasharray:none" />
			<path
   inkscape:connector-curvature="0"
   id="path176"
   d="m 316.298,751.724 c 0,0 -38.317,-3.735 -46.964,-51.646 -3.109,-17.229 -17.022,1.67 -10.821,23.225 6.024,20.939 32.024,36.386 57.785,28.421 z"
   style="fill:#ffa6ef;fill-opacity:0.99607843;stroke:#ffa6ef;stroke-width:4;stroke-miterlimit:4;stroke-dasharray:none;stroke-opacity:0.99607843" />
		</g>
		<path
   inkscape:connector-curvature="0"
   id="path180"
   d="m 365.262,749.357 c 0,5.299 -4.298,9.594 -9.597,9.594 -5.301,0 -9.6,-4.295 -9.6,-9.594 0,-5.305 4.298,-9.6 9.6,-9.6 5.298,0.001 9.597,4.296 9.597,9.6 z"
   style="fill:#986900;fill-opacity:0.99607843;stroke:none" />
	</g>
<g
   id="g1108"><path
     style="fill:#74dfe8;fill-opacity:0.99607843;stroke:none"
     d="m 1000.6691,814.38463 c 3.1702,-10.70496 9.104,-19.75283 1.6055,-27.62098 -4.97798,-5.22351 -32.74653,-16.69853 -50.85069,-23.82067 0.94559,-2.47538 1.30143,-5.11865 1.04545,-7.75892 19.35911,-2.03999 49.17754,-5.70034 55.36884,-9.4155 9.316,-5.58541 6.0102,-15.88664 5.8087,-27.05056 -0.2038,-11.15829 3.7176,-15.29725 0.7996,-21.92488 -5.6192,-4.57925 -10.6417,-1.90414 -21.34849,-5.06956 -10.70811,-3.1651 -19.7523,-9.10478 -27.62098,-1.6055 -5.2235,4.97801 -16.69852,32.74657 -23.81957,50.85846 -2.47878,-0.94769 -5.12432,-1.31317 -7.76002,-1.05319 -2.04261,-19.35485 -5.70296,-49.17324 -9.41354,-55.36059 -5.58737,-9.32426 -15.89174,-6.01337 -27.05567,-5.81184 -11.15914,0.20332 -15.2941,-3.72274 -21.92572,-0.80009 -4.57526,5.61454 -1.9033,10.64224 -5.06957,21.34845 -3.16509,10.70812 -9.10392,19.75283 -1.6055,27.62098 4.98312,5.22666 32.75167,16.70168 50.85336,23.81642 -0.94855,2.47825 -1.30492,5.12237 -1.04493,7.75806 -19.35291,2.05087 -49.1713,5.71123 -55.36375,9.41866 -9.32426,5.58736 -6.01022,15.88663 -5.80868,27.05056 0.19505,11.16109 -3.72359,15.29357 -0.8001,21.92572 5.61139,4.58036 10.64649,1.90592 21.34898,5.06872 10.69933,3.1679 19.7523,9.10477 27.62098,1.6055 5.22351,-4.97802 16.69342,-32.74972 23.82067,-50.85073 2.47027,0.94244 5.11812,1.30228 7.75577,1.05056 2.04066,19.3466 5.70101,49.16499 9.41354,55.36059 5.58737,9.32426 15.89174,6.01338 27.05056,5.80869 11.1634,-0.20069 15.29673,3.71848 21.92488,0.79957 4.58608,-5.61492 1.90847,-10.64492 5.07038,-21.34793 z"
     id="path184"
     inkscape:connector-curvature="0" /><path
     inkscape:connector-curvature="0"
     id="path1103"
     d="m 1021.191,771.59 c -2.927,-10.774 -2.632,-21.59 -13.146,-24.345 -6.98,-1.829 -36.636,2.997 -55.782,6.449 -0.496,-2.603 -1.582,-5.039 -3.187,-7.151 15.4,-11.907 38.848,-30.688 42.164,-37.102 4.992,-9.647 -3.233,-16.675 -9.27,-26.068 -6.036,-9.387 -4.874,-14.969 -10.839,-19.075 -7.187,-0.944 -10.055,3.971 -20.828,6.903 -10.774,2.933 -21.59,2.631 -24.345,13.146 -1.829,6.98 2.997,36.636 6.454,55.788 -2.607,0.496 -5.05,1.575 -7.156,3.181 -11.907,-15.395 -30.688,-38.843 -37.096,-42.158 -9.653,-4.998 -16.681,3.233 -26.074,9.27 -9.388,6.036 -14.969,4.868 -19.076,10.839 -0.943,7.181 3.972,10.055 6.903,20.828 2.933,10.774 2.632,21.59 13.146,24.345 6.986,1.829 36.642,-2.997 55.782,-6.454 0.495,2.607 1.581,5.044 3.187,7.15 -15.389,11.913 -38.837,30.694 -42.158,37.102 -4.998,9.653 3.233,16.675 9.27,26.068 6.03,9.394 4.867,14.969 10.839,19.076 7.181,0.949 10.06,-3.972 20.828,-6.904 10.768,-2.926 21.59,-2.631 24.345,-13.146 1.829,-6.98 -3.003,-36.636 -6.449,-55.782 2.597,-0.496 5.039,-1.581 7.151,-3.181 11.901,15.389 30.682,38.837 37.096,42.158 9.653,4.998 16.681,-3.233 26.068,-9.27 9.393,-6.036 14.969,-4.873 19.075,-10.839 0.952,-7.187 -3.969,-10.06 -6.902,-20.828 z"
     style="stroke:none;fill:#5df3ff;fill-opacity:0.99607843" /><ellipse
     ry="19.269409"
     rx="19.452927"
     cy="755.19025"
     cx="934.47455"
     id="path1101"
     style="opacity:1;fill:#a1b8bb;fill-opacity:0.99607843;stroke:none;stroke-width:2;stroke-linecap:round;stroke-linejoin:round;stroke-miterlimit:4;stroke-dasharray:none;stroke-dashoffset:0;stroke-opacity:0.99607843" /></g></svg>